<svg width="459" height="97" viewBox="0 0 459 97" fill="none" xmlns="http://www.w3.org/2000/svg">
<path d="M0.217329 95V0.454543H63.9247V16.9354H20.2067V39.4638H60.647V55.9446H20.2067V78.5192H64.1094V95H0.217329Z" fill="#B8FF20"/>
<path d="M123.627 48.3736V63.9773H80.5094V48.3736H123.627ZM178.102 24.0909V38.8636H135.399V24.0909H178.102ZM145.094 7.10227H164.76V73.2102C164.76 75.026 165.037 76.4418 165.591 77.4574C166.145 78.4422 166.914 79.1347 167.899 79.5348C168.915 79.9349 170.084 80.1349 171.408 80.1349C172.331 80.1349 173.254 80.058 174.178 79.9041C175.101 79.7195 175.809 79.581 176.301 79.4886L179.394 94.1229C178.41 94.4306 177.025 94.7846 175.24 95.1847C173.454 95.6155 171.285 95.8771 168.73 95.9695C163.991 96.1541 159.836 95.5232 156.266 94.0767C152.727 92.6302 149.972 90.3835 148.002 87.3366C146.033 84.2898 145.063 80.4427 145.094 75.7955V7.10227ZM190.912 95V24.0909H209.979V36.4631H210.717C212.01 32.062 214.18 28.7382 217.226 26.4915C220.273 24.214 223.782 23.0753 227.752 23.0753C228.737 23.0753 229.799 23.1368 230.937 23.2599C232.076 23.383 233.076 23.5523 233.938 23.7678V41.218C233.015 40.941 231.738 40.6948 230.106 40.4794C228.475 40.264 226.983 40.1562 225.628 40.1562C222.735 40.1562 220.15 40.7872 217.873 42.049C215.626 43.2801 213.841 45.0035 212.518 47.2195C211.225 49.4354 210.579 51.9898 210.579 54.8828V95H190.912ZM262.295 96.3388C257.771 96.3388 253.739 95.554 250.2 93.9844C246.66 92.384 243.86 90.0296 241.798 86.9212C239.766 83.782 238.751 79.8733 238.751 75.1953C238.751 71.2559 239.474 67.9474 240.92 65.2699C242.367 62.5923 244.337 60.438 246.83 58.8068C249.322 57.1757 252.154 55.9446 255.324 55.1136C258.525 54.2827 261.879 53.6979 265.388 53.3594C269.512 52.9285 272.836 52.5284 275.359 52.1591C277.883 51.759 279.714 51.1742 280.853 50.4048C281.992 49.6354 282.561 48.4967 282.561 46.9886V46.7116C282.561 43.7879 281.638 41.5258 279.791 39.9254C277.975 38.325 275.39 37.5249 272.036 37.5249C268.496 37.5249 265.68 38.3097 263.587 39.8793C261.495 41.4181 260.11 43.357 259.433 45.696L241.244 44.2188C242.167 39.91 243.983 36.1861 246.691 33.0469C249.399 29.8769 252.893 27.4455 257.17 25.7528C261.479 24.0294 266.465 23.1676 272.128 23.1676C276.067 23.1676 279.837 23.6293 283.438 24.5526C287.07 25.4759 290.286 26.907 293.087 28.8459C295.918 30.7848 298.149 33.2777 299.781 36.3246C301.412 39.3407 302.227 42.9569 302.227 47.1733V95H283.577V85.1669H283.023C281.884 87.3828 280.361 89.3371 278.452 91.0298C276.544 92.6918 274.251 93.9998 271.574 94.9538C268.896 95.8771 265.803 96.3388 262.295 96.3388ZM267.927 82.7663C270.82 82.7663 273.374 82.197 275.59 81.0582C277.806 79.8887 279.545 78.3191 280.807 76.3494C282.069 74.3797 282.7 72.1484 282.7 69.6555V62.1307C282.084 62.5308 281.238 62.9001 280.161 63.2386C279.114 63.5464 277.929 63.8388 276.606 64.1158C275.282 64.362 273.959 64.5928 272.636 64.8082C271.312 64.9929 270.112 65.1622 269.035 65.316C266.727 65.6546 264.711 66.1932 262.987 66.9318C261.264 67.6705 259.925 68.6707 258.971 69.9325C258.017 71.1636 257.54 72.7024 257.54 74.549C257.54 77.2266 258.509 79.2732 260.448 80.6889C262.418 82.0739 264.911 82.7663 267.927 82.7663ZM337.151 54.0057V95H317.485V24.0909H336.228V36.6016H337.059C338.628 32.4775 341.26 29.2152 344.953 26.8146C348.646 24.3833 353.124 23.1676 358.387 23.1676C363.311 23.1676 367.604 24.2448 371.267 26.3991C374.929 28.5535 377.776 31.6312 379.807 35.6321C381.838 39.6023 382.854 44.3419 382.854 49.8508V95H363.188V53.3594C363.219 49.0199 362.111 45.6345 359.864 43.2031C357.617 40.741 354.524 39.5099 350.585 39.5099C347.938 39.5099 345.599 40.0793 343.568 41.218C341.567 42.3568 339.998 44.0187 338.859 46.2038C337.751 48.3582 337.182 50.9588 337.151 54.0057ZM457.352 44.3111L439.348 45.419C439.04 43.8802 438.379 42.4953 437.363 41.2642C436.347 40.0024 435.009 39.0021 433.347 38.2635C431.716 37.4941 429.761 37.1094 427.484 37.1094C424.437 37.1094 421.867 37.7557 419.774 39.0483C417.682 40.3101 416.635 42.0028 416.635 44.1264C416.635 45.8191 417.312 47.2502 418.666 48.4197C420.021 49.5893 422.344 50.5279 425.637 51.2358L438.471 53.821C445.365 55.2367 450.505 57.5142 453.89 60.6534C457.276 63.7926 458.968 67.9167 458.968 73.0256C458.968 77.6728 457.599 81.7507 454.86 85.2592C452.151 88.7678 448.427 91.5069 443.688 93.4766C438.979 95.4155 433.547 96.3849 427.392 96.3849C418.005 96.3849 410.526 94.4306 404.955 90.522C399.416 86.5826 396.169 81.2275 395.215 74.4567L414.558 73.441C415.142 76.3033 416.558 78.4884 418.805 79.9964C421.052 81.4737 423.929 82.2124 427.438 82.2124C430.885 82.2124 433.655 81.5507 435.747 80.2273C437.871 78.8731 438.948 77.1342 438.979 75.0107C438.948 73.2256 438.194 71.7637 436.717 70.625C435.24 69.4555 432.962 68.563 429.884 67.9474L417.605 65.5007C410.68 64.1158 405.525 61.7152 402.139 58.299C398.785 54.8828 397.107 50.5279 397.107 45.2344C397.107 40.6794 398.338 36.7554 400.801 33.4624C403.294 30.1693 406.787 27.6302 411.28 25.8452C415.804 24.0601 421.098 23.1676 427.161 23.1676C436.117 23.1676 443.164 25.0604 448.304 28.8459C453.475 32.6314 456.491 37.7865 457.352 44.3111Z" fill="white"/>
</svg>
