<?xml version="1.0" standalone="no"?>
<!DOCTYPE svg PUBLIC "-//W3C//DTD SVG 20010904//EN"
 "http://www.w3.org/TR/2001/REC-SVG-20010904/DTD/svg10.dtd">
<svg version="1.0" xmlns="http://www.w3.org/2000/svg"
 width="3672.000000pt" height="3672.000000pt" viewBox="0 0 3672.000000 3672.000000"
 preserveAspectRatio="xMidYMid meet">
<metadata>
Created by potrace 1.14, written by Peter Selinger 2001-2017
</metadata>
<g transform="translate(0.000000,3672.000000) scale(0.100000,-0.100000)"
fill="#000000" stroke="none">
<path d="M17 22195 c-5 -19 -1 -7544 4 -7550 8 -7 157 -10 164 -3 3 3 20 2 38
-2 18 -4 41 -4 51 0 11 3 39 3 63 0 24 -4 46 -3 49 2 3 4 10 6 15 2 9 -5 279
-8 305 -3 5 1 12 1 17 -1 16 -4 98 -2 103 2 2 3 22 2 44 -2 21 -4 44 -4 51 1
7 4 17 6 21 3 12 -8 225 -7 237 1 6 3 11 3 11 -2 0 -6 93 -8 205 -3 11 1 38 1
60 1 22 0 47 0 55 0 8 0 38 -1 65 -1 28 -1 55 -1 60 0 6 1 14 2 19 1 6 -1 26
-2 45 -1 49 1 55 1 185 -1 63 0 119 2 125 6 6 3 11 3 11 -2 0 -4 24 -7 52 -6
29 1 62 3 73 3 16 1 106 1 220 1 11 0 38 0 60 0 22 0 47 0 55 0 55 -2 135 1
142 5 4 3 8 2 8 -3 0 -9 87 -9 96 0 3 3 12 3 19 1 20 -8 225 -10 225 -3 0 4
17 3 38 0 20 -4 54 -4 75 -1 20 4 37 4 37 1 0 -5 82 -5 195 0 11 0 38 0 60 0
22 0 47 0 55 0 8 0 38 -1 65 -1 28 -1 55 -1 60 0 6 1 14 2 19 1 6 -1 26 -2 45
-1 44 1 50 1 177 0 56 0 106 0 110 1 5 1 12 1 17 -1 16 -4 98 -2 103 2 2 3 22
2 44 -2 21 -4 44 -4 50 0 6 4 31 4 56 0 24 -4 47 -3 50 2 3 4 10 6 15 2 9 -5
279 -8 305 -3 5 1 12 1 17 -1 16 -4 98 -2 103 2 2 3 22 2 44 -2 21 -4 44 -4
51 1 7 4 17 6 21 3 12 -8 225 -7 237 1 6 3 11 3 11 -2 0 -12 84 -10 92 2 4 6
8 303 8 662 l0 652 -207 -1 c-115 0 -212 1 -218 2 -5 1 -14 1 -20 0 -12 -2
-926 -2 -940 1 -5 1 -14 0 -20 -1 -12 -2 -926 -2 -940 1 -5 1 -14 0 -20 -1
-12 -2 -926 -2 -940 1 -5 1 -14 0 -20 -1 -36 -7 -178 -2 -183 7 -4 6 -7 413
-7 905 l1 893 1617 0 1617 0 1 25 c0 31 0 1271 -1 1285 0 7 -546 10 -1617 10
l-1617 0 0 900 0 900 1744 0 c960 -1 1747 2 1750 6 4 6 5 1264 1 1304 -1 14
-5090 14 -5094 0z"/>
<path d="M11609 21658 c0 -7 0 -313 0 -679 l-1 -666 -384 1 c-267 1 -385 -2
-388 -10 -2 -6 -4 -273 -4 -593 l-1 -582 312 1 c172 1 346 1 388 1 l77 -1 1
-1567 c0 -863 3 -1584 6 -1603 2 -19 7 -60 11 -90 5 -47 11 -81 39 -211 16
-77 102 -287 148 -364 34 -57 151 -208 193 -251 71 -71 169 -154 182 -154 7 0
12 -4 12 -8 0 -4 26 -23 58 -42 31 -19 59 -37 62 -40 5 -5 129 -63 205 -96 64
-27 236 -76 345 -98 14 -3 34 -7 46 -10 12 -2 43 -7 70 -10 27 -3 69 -8 94
-11 42 -6 203 -17 225 -16 30 1 112 1 125 0 44 -2 268 14 360 26 14 2 45 6 69
9 46 6 230 44 240 50 3 2 22 7 41 10 19 3 51 10 70 16 19 6 46 13 60 16 14 2
32 7 40 11 8 3 18 7 22 7 16 2 18 17 9 57 -6 24 -13 58 -15 74 -2 17 -5 30 -6
30 -1 0 -3 9 -5 20 -2 11 -11 52 -20 90 -9 39 -17 79 -19 90 -1 11 -8 45 -14
75 -7 30 -13 64 -15 75 -2 11 -7 27 -10 35 -3 8 -10 42 -17 75 -22 118 -15 83
-76 365 -14 63 -27 129 -30 145 -3 17 -9 33 -13 38 -4 4 -41 0 -81 -8 -41 -9
-86 -17 -100 -18 -14 -2 -30 -6 -35 -9 -14 -7 -303 -3 -340 6 -83 19 -185 62
-185 78 0 5 -6 8 -12 8 -18 0 -75 67 -103 120 -21 42 -40 98 -53 160 -3 14 -7
610 -8 1325 -2 715 -4 1302 -5 1305 -1 3 0 10 1 15 6 25 6 52 -1 71 -4 12 -5
25 -2 28 4 3 6 44 5 91 -1 62 1 85 11 85 6 0 246 1 532 3 l520 2 2 588 2 587
-22 1 c-12 0 -253 1 -535 2 l-512 0 0 216 c1 119 0 221 -1 226 -1 6 0 15 1 20
6 25 6 52 -1 71 -4 12 -5 24 -3 27 4 4 8 689 4 785 0 9 -164 12 -785 12 -621
0 -785 -3 -786 -12z"/>
<path d="M18157 20394 c-1 -1 -33 -4 -72 -8 -106 -9 -156 -16 -200 -28 -22 -7
-42 -12 -45 -13 -35 -6 -191 -62 -210 -74 -31 -21 -83 -45 -92 -43 -3 1 -12
-5 -18 -13 -7 -8 -19 -15 -26 -15 -8 0 -14 -4 -14 -10 0 -5 -5 -10 -11 -10
-35 0 -257 -195 -324 -285 -17 -22 -33 -42 -36 -45 -28 -23 -169 -278 -169
-306 0 -8 -4 -14 -10 -14 -5 0 -10 -11 -10 -25 0 -14 -4 -25 -10 -25 -5 0 -9
-3 -8 -7 1 -5 -9 -40 -21 -79 -22 -65 -26 -70 -52 -70 -19 0 -29 5 -30 15 -4
91 -2 234 4 238 4 2 5 9 1 14 -5 8 -7 371 -4 479 1 8 0 66 -1 128 -2 94 -5
112 -18 113 -21 1 -1483 1 -1497 0 -8 -1 -10 -803 -10 -2838 1 -2513 3 -2838
16 -2835 25 6 160 7 160 2 0 -6 120 -3 127 4 3 2 15 1 27 -3 11 -4 32 -5 46
-1 14 3 42 3 63 -1 20 -3 40 -3 43 2 2 4 10 6 17 3 19 -7 147 -10 147 -3 0 3
17 3 38 0 20 -4 58 -4 85 -1 26 4 47 4 47 1 0 -3 26 -5 57 -3 32 1 68 2 81 2
28 -1 44 -1 105 0 27 0 53 -2 58 -5 5 -4 9 -2 9 3 0 5 16 6 38 3 20 -4 54 -4
75 0 21 3 40 3 42 -1 2 -4 24 -4 47 -1 24 4 57 4 73 1 17 -3 45 -3 63 1 17 4
34 4 36 0 3 -4 20 -5 38 -3 l34 4 0 1631 c1 1612 3 1776 29 1856 3 11 9 33 12
48 7 40 9 45 21 76 7 16 12 33 12 38 0 5 4 17 10 27 5 9 21 42 35 73 14 31 35
69 46 83 11 14 18 26 14 26 -3 0 -1 6 5 13 5 6 31 39 57 72 53 66 132 146 183
185 18 14 39 31 46 38 7 6 15 12 18 12 3 0 29 15 58 33 59 37 147 79 193 93 6
2 29 10 52 18 22 8 53 17 67 20 14 3 30 7 35 10 9 6 25 9 136 22 128 16 449 5
565 -20 14 -3 45 -8 70 -11 51 -6 120 -20 168 -34 17 -5 33 -7 33 -3 2 9 4
1392 3 1392 -1 0 -26 5 -55 10 -30 6 -70 13 -89 16 -19 2 -44 7 -56 9 -38 8
-350 25 -357 19z"/>
<path d="M21534 20381 c-3 -3 -28 -6 -57 -6 -57 -2 -199 -15 -207 -20 -3 -2
-34 -6 -70 -10 -36 -4 -67 -8 -70 -10 -3 -2 -26 -6 -50 -10 -25 -3 -53 -8 -62
-11 -9 -3 -25 -6 -35 -8 -10 -2 -47 -12 -83 -21 -36 -9 -72 -18 -80 -20 -20
-4 -207 -69 -245 -86 -16 -7 -32 -13 -35 -14 -33 -8 -80 -31 -80 -39 0 -5 -2
-7 -6 -4 -5 5 -123 -52 -208 -101 -82 -47 -217 -144 -308 -219 -36 -31 -173
-169 -203 -207 -16 -20 -40 -48 -53 -63 -39 -46 -137 -194 -179 -272 -44 -80
-122 -257 -128 -290 -2 -11 -7 -25 -11 -31 -4 -6 -10 -25 -15 -43 -4 -17 -17
-65 -28 -106 -11 -41 -16 -79 -12 -83 5 -5 43 -10 85 -13 42 -2 95 -6 119 -9
23 -3 78 -7 122 -10 44 -3 105 -8 135 -10 30 -3 87 -8 125 -11 39 -3 90 -7
115 -9 25 -2 74 -7 110 -9 36 -3 94 -8 130 -11 36 -3 97 -8 135 -10 39 -3 95
-8 125 -10 30 -3 90 -8 134 -11 43 -3 81 -5 85 -6 20 -2 30 5 35 27 4 14 23
60 44 102 53 107 56 113 64 113 5 0 8 4 8 9 0 18 97 122 165 176 28 22 52 42
55 45 18 18 180 103 180 94 0 -4 6 -2 13 4 13 10 128 45 187 57 149 28 408 26
555 -3 135 -28 277 -99 362 -182 66 -64 93 -96 93 -109 0 -5 4 -11 8 -13 24
-9 88 -186 98 -270 8 -63 8 -198 1 -239 -8 -47 -45 -115 -81 -151 -65 -65
-237 -138 -386 -162 -29 -5 -75 -14 -107 -20 -12 -3 -48 -7 -80 -11 -32 -3
-71 -8 -88 -11 -16 -3 -48 -7 -69 -9 -21 -3 -55 -7 -75 -9 -98 -13 -150 -19
-191 -22 -25 -1 -45 -3 -45 -4 0 -4 -81 -13 -205 -24 -58 -5 -157 -17 -177
-20 -10 -2 -45 -7 -78 -11 -32 -4 -66 -8 -75 -10 -8 -1 -37 -6 -63 -9 -27 -4
-59 -9 -70 -12 -12 -2 -33 -6 -47 -9 -92 -17 -138 -27 -235 -50 -128 -30 -272
-72 -297 -86 -10 -5 -22 -9 -28 -9 -6 0 -29 -9 -53 -19 -23 -11 -59 -25 -79
-32 -21 -7 -38 -17 -38 -21 0 -4 -7 -8 -15 -8 -14 0 -154 -68 -165 -80 -3 -4
-35 -24 -72 -45 -38 -22 -68 -43 -68 -47 0 -4 -6 -8 -14 -8 -8 0 -16 -3 -18
-8 -1 -4 -23 -23 -48 -42 -66 -51 -176 -165 -236 -245 -46 -61 -144 -218 -144
-230 0 -2 -11 -28 -24 -57 -20 -46 -38 -91 -41 -108 -1 -3 -9 -31 -18 -62 -10
-32 -22 -81 -28 -110 -12 -62 -17 -83 -19 -83 -6 0 -14 -184 -14 -330 -1 -213
9 -312 48 -490 11 -49 45 -154 57 -176 7 -13 12 -26 12 -29 -2 -18 79 -184
102 -210 8 -8 14 -19 15 -25 0 -5 10 -20 20 -33 11 -12 20 -27 20 -32 0 -6 4
-10 8 -10 4 0 16 -14 26 -30 20 -34 194 -212 245 -250 18 -14 39 -31 46 -37
48 -45 255 -160 380 -210 147 -59 373 -119 480 -129 17 -1 30 -3 30 -4 0 -4
37 -8 126 -16 171 -14 523 -8 623 12 12 2 41 7 66 10 25 3 61 9 80 14 19 5 50
12 69 15 19 3 42 10 51 15 10 5 20 7 23 4 3 -3 13 -1 24 4 10 6 59 24 108 42
154 56 364 173 475 266 43 36 181 175 216 219 53 64 134 182 134 195 0 6 4 10
8 10 5 0 16 17 24 38 12 30 20 38 40 38 l24 0 -1 -385 c0 -213 1 -391 3 -398
3 -8 11 -9 27 -3 13 5 25 7 28 4 6 -7 217 -10 217 -4 0 3 36 3 80 0 44 -3 80
-2 80 1 0 4 18 3 40 -1 22 -4 43 -3 46 1 3 5 10 7 15 3 13 -8 195 -7 209 1 5
3 10 2 10 -3 0 -5 17 -6 40 -2 22 4 40 4 40 0 0 -4 18 -4 40 0 22 4 40 4 40 0
0 -4 17 -4 38 0 21 4 47 5 58 3 28 -5 123 -5 132 1 5 3 14 1 21 -3 7 -5 28 -5
47 -1 18 4 35 5 38 2 3 -3 32 -4 63 -3 61 2 67 2 125 1 21 -1 42 1 47 4 10 6
7 3989 -2 4066 -15 115 -20 142 -44 245 -27 118 -53 196 -84 257 -5 10 -9 25
-9 33 0 8 -4 15 -8 15 -5 0 -15 18 -22 40 -7 22 -17 40 -22 40 -4 0 -8 5 -8
10 0 10 -97 170 -109 180 -3 3 -18 21 -33 42 -15 20 -35 43 -44 52 -8 9 -13
16 -10 16 12 0 -157 161 -229 218 -103 80 -88 70 -180 128 -83 54 -297 161
-375 189 -97 36 -282 95 -308 99 -15 2 -27 5 -27 6 0 2 -113 28 -147 34 -15 3
-53 10 -85 15 -144 26 -239 38 -363 47 -102 8 -519 11 -526 5z m1079 -3478
c-2 -323 -6 -421 -13 -430 -3 -3 -2 -2 -15 -58 -11 -49 -6 -35 -47 -142 -59
-153 -215 -342 -364 -440 -11 -7 -35 -23 -54 -36 -97 -63 -277 -132 -400 -152
-19 -3 -42 -8 -51 -11 -19 -5 -191 -15 -259 -15 -82 1 -183 13 -264 31 -67 15
-216 71 -216 81 0 5 -6 9 -13 9 -16 0 -108 62 -143 97 -58 58 -113 141 -130
198 -36 119 -47 242 -32 355 15 116 72 225 167 321 56 56 199 156 235 164 6 1
33 12 59 23 27 12 61 25 75 28 15 4 32 9 37 13 6 3 15 7 20 8 6 1 30 7 55 14
25 6 52 12 60 14 8 2 15 4 15 5 0 1 11 3 25 5 25 3 51 9 100 20 14 3 43 7 65
10 22 3 51 6 65 9 14 2 50 6 80 10 30 4 69 10 85 12 17 3 41 7 55 9 65 9 327
56 339 60 8 3 30 8 49 11 18 3 55 12 80 19 25 8 49 12 54 9 4 -3 8 -1 8 3 0 5
8 9 18 10 37 3 248 86 257 102 1 1 0 -164 -2 -366z"/>
<path d="M28527 20384 c-1 -1 -36 -4 -77 -8 -95 -8 -204 -24 -253 -37 -21 -5
-50 -12 -65 -14 -35 -5 -129 -33 -167 -50 -16 -7 -41 -16 -55 -20 -40 -12
-213 -96 -232 -113 -10 -8 -18 -11 -18 -6 0 5 -4 4 -8 -2 -4 -5 -25 -21 -47
-34 -22 -13 -42 -27 -45 -30 -3 -3 -18 -14 -34 -24 -16 -10 -42 -30 -58 -45
-17 -14 -32 -26 -35 -26 -6 0 -148 -140 -185 -182 -74 -86 -149 -201 -210
-321 -38 -74 -68 -140 -68 -148 0 -9 -11 -13 -35 -12 -28 1 -35 5 -36 22 0 12
0 236 -1 499 l0 477 -21 1 c-12 0 -349 1 -749 2 l-728 2 -1 -30 c-2 -163 0
-5637 3 -5640 3 -4 60 -6 98 -4 8 0 48 -1 88 -2 40 -1 75 1 78 4 3 3 18 2 33
-3 16 -4 34 -4 41 0 7 4 25 4 40 0 15 -4 33 -4 40 0 6 4 27 4 46 0 19 -4 36
-4 39 0 3 5 19 6 36 3 44 -7 219 -9 219 -3 0 3 36 3 80 0 44 -3 80 -2 80 1 0
4 18 3 40 -1 22 -4 43 -3 46 1 3 5 10 7 15 3 13 -8 195 -7 209 1 5 3 10 2 10
-3 0 -5 17 -6 40 -2 22 4 40 4 40 0 0 -4 18 -4 40 0 22 4 40 4 40 0 0 -4 18
-4 40 0 22 4 43 4 45 0 3 -4 20 -4 39 0 19 4 37 5 40 2 8 -7 7 -187 10 1738 2
938 6 1723 9 1745 4 22 9 51 12 65 3 14 7 36 10 50 9 51 28 125 34 135 3 6 6
15 7 20 1 6 10 28 19 50 10 22 19 42 20 45 21 58 108 201 127 208 4 2 8 8 8
14 0 17 131 142 195 185 91 61 219 121 297 139 202 47 459 53 606 14 17 -5 32
-6 32 -4 0 3 9 0 21 -6 11 -6 28 -13 37 -15 9 -2 31 -9 47 -16 17 -7 32 -13
35 -14 116 -39 282 -174 370 -301 60 -87 128 -231 144 -306 3 -13 10 -41 15
-63 9 -37 15 -71 28 -150 2 -16 5 -817 6 -1780 l2 -1750 55 -2 c30 -1 63 -4
73 -7 9 -2 17 -1 17 4 0 4 17 4 38 1 20 -4 54 -4 75 0 21 3 40 3 42 -1 2 -3
26 -4 52 -1 26 4 62 4 78 1 17 -3 49 -3 72 1 23 3 47 3 54 -1 6 -4 26 -4 45 0
19 4 36 4 39 0 2 -4 23 -4 45 0 22 4 40 4 40 0 0 -4 18 -4 40 0 22 4 43 3 46
-1 3 -5 9 -7 13 -5 9 6 39 7 168 5 51 0 97 2 103 6 5 3 10 2 10 -3 0 -5 17 -6
40 -2 22 4 40 4 40 0 0 -4 18 -4 40 0 22 4 43 4 45 0 3 -4 20 -5 37 -1 18 4
44 6 58 4 49 -5 130 -4 139 1 5 4 12 2 15 -2 3 -5 17 -7 30 -5 l25 5 -3 1942
c-2 1067 -7 1959 -10 1981 -4 22 -8 56 -11 75 -8 67 -14 105 -29 180 -21 109
-26 133 -33 155 -4 11 -7 22 -8 25 -4 20 -50 161 -60 185 -8 17 -23 55 -35 85
-26 67 -92 194 -102 198 -5 2 -6 7 -3 12 3 4 -2 13 -10 20 -8 7 -15 19 -15 26
0 8 -4 14 -10 14 -5 0 -10 4 -10 10 0 5 -17 34 -37 62 -100 140 -167 215 -289
324 -78 70 -203 163 -215 160 -4 0 -15 6 -25 15 -18 16 -204 112 -251 130 -13
5 -33 13 -45 18 -44 16 -123 43 -143 47 -34 8 -39 10 -60 17 -25 8 -90 21
-160 32 -136 22 -220 28 -378 30 -86 1 -158 1 -160 -1z"/>
<path d="M33936 20383 c-2 -2 -37 -5 -79 -8 -97 -5 -226 -19 -287 -30 -14 -3
-41 -7 -60 -10 -19 -2 -46 -7 -60 -10 -14 -3 -38 -8 -55 -10 -45 -6 -88 -15
-97 -21 -5 -3 -24 -8 -41 -11 -38 -6 -47 -8 -67 -15 -14 -5 -91 -28 -115 -34
-112 -29 -398 -157 -513 -230 -29 -19 -55 -34 -58 -34 -2 0 -10 -5 -17 -10 -7
-6 -41 -32 -77 -58 -101 -73 -224 -188 -297 -279 -21 -27 -44 -54 -51 -62 -48
-50 -148 -237 -196 -365 -28 -73 -65 -210 -72 -261 -2 -16 -6 -52 -10 -80 -13
-96 -18 -300 -10 -380 8 -79 19 -162 23 -180 2 -11 6 -29 8 -40 3 -11 14 -51
26 -90 11 -38 22 -74 23 -80 2 -5 5 -17 9 -25 10 -27 18 -55 18 -60 0 -3 8
-13 16 -22 9 -10 13 -18 10 -18 -11 0 108 -206 133 -230 3 -3 18 -22 34 -43
51 -69 194 -207 266 -257 19 -13 37 -27 40 -30 6 -6 12 -10 137 -85 51 -30 94
-55 96 -55 3 0 43 -18 89 -39 104 -49 188 -83 188 -75 0 4 6 2 13 -4 14 -11
182 -66 271 -88 68 -17 227 -53 266 -60 14 -3 59 -12 100 -20 41 -9 89 -18
105 -21 41 -7 60 -11 60 -13 0 -1 11 -3 25 -5 14 -2 36 -6 50 -8 14 -3 72 -15
130 -27 58 -12 116 -23 130 -26 14 -2 36 -7 50 -10 50 -12 112 -24 150 -29 14
-2 59 -11 100 -20 41 -9 84 -18 95 -21 69 -14 195 -49 230 -64 17 -7 36 -14
42 -16 31 -6 188 -88 216 -112 112 -96 158 -164 182 -265 12 -53 13 -150 1
-204 -17 -79 -110 -211 -191 -273 -46 -35 -178 -108 -202 -111 -5 -1 -28 -9
-53 -19 -39 -15 -125 -37 -185 -46 -91 -14 -138 -17 -260 -17 -172 -1 -267 8
-386 37 -80 19 -137 39 -209 73 -53 24 -153 86 -176 108 -6 5 -26 24 -45 40
-104 92 -176 225 -234 431 -2 6 -16 10 -31 8 -31 -3 -244 -15 -359 -20 -38 -1
-70 -3 -70 -4 0 -1 -45 -3 -100 -5 -55 -2 -143 -6 -195 -10 -52 -3 -142 -8
-200 -10 -58 -3 -136 -7 -175 -10 -38 -2 -133 -7 -210 -11 -220 -10 -200 -6
-199 -40 0 -32 11 -98 20 -127 3 -11 7 -29 9 -40 16 -110 142 -428 193 -489 9
-10 12 -18 9 -18 -8 0 60 -99 129 -192 44 -58 139 -163 183 -202 12 -12 38
-34 55 -51 18 -16 48 -41 66 -55 18 -14 38 -30 44 -35 18 -17 146 -105 153
-105 4 0 14 -6 22 -14 45 -41 345 -179 493 -227 98 -32 306 -87 357 -94 14 -2
49 -8 78 -14 29 -6 74 -13 100 -16 26 -3 64 -8 83 -11 133 -21 268 -28 550
-28 317 -1 502 11 675 44 28 5 66 12 85 15 19 3 53 11 74 16 22 6 49 12 60 14
12 1 28 5 36 8 20 7 129 37 155 42 18 4 32 9 90 31 11 4 25 8 32 10 7 1 27 9
44 18 18 9 36 16 41 16 39 0 413 196 469 246 8 8 19 14 23 14 4 0 12 5 19 10
20 17 53 43 101 80 136 104 315 304 414 462 62 100 173 348 156 348 -2 0 0 9
6 21 7 11 14 33 16 47 3 15 10 45 15 67 6 22 13 56 15 75 2 19 7 62 11 95 9
76 9 304 -1 370 -4 28 -7 57 -8 65 0 18 -28 149 -36 170 -3 8 -6 18 -7 23 -2
4 -4 10 -5 15 -1 4 -3 12 -4 17 -3 16 -16 44 -64 145 -85 178 -189 305 -369
451 -18 14 -123 87 -169 117 -29 18 -302 153 -316 156 -7 1 -31 10 -53 20 -22
10 -49 19 -60 22 -11 2 -29 8 -40 13 -52 25 -343 105 -458 127 -17 3 -36 7
-42 8 -41 9 -74 16 -95 20 -25 4 -216 43 -255 52 -11 2 -34 6 -52 8 -18 3 -36
7 -40 9 -5 3 -28 8 -53 12 -25 4 -47 8 -51 11 -3 2 -25 6 -49 9 -23 3 -47 8
-52 11 -6 4 -22 8 -37 9 -14 1 -42 6 -61 10 -19 5 -42 9 -50 10 -8 1 -28 5
-45 9 -29 6 -54 11 -105 21 -14 3 -36 7 -50 10 -14 3 -34 8 -45 10 -40 9 -62
15 -140 36 -44 12 -90 23 -102 26 -13 3 -23 10 -23 15 0 5 -4 7 -8 4 -5 -3
-20 1 -34 8 -14 8 -42 19 -62 26 -20 6 -36 15 -36 20 0 5 -13 11 -30 15 -16 4
-30 10 -30 15 0 5 -8 11 -18 14 -27 9 -115 95 -150 147 -46 68 -67 141 -66
234 0 44 3 94 8 110 4 17 8 35 9 40 6 24 33 75 39 75 5 0 8 6 8 13 0 7 24 38
53 68 78 83 200 155 337 200 62 20 75 23 130 34 14 3 36 8 50 11 50 13 374 13
438 -1 34 -7 62 -11 62 -8 0 2 8 -1 18 -6 11 -6 32 -12 47 -15 46 -8 125 -39
125 -49 0 -4 3 -6 8 -3 4 2 30 -9 57 -25 28 -16 58 -32 68 -35 9 -4 17 -10 17
-15 0 -5 6 -9 13 -9 20 0 157 -135 200 -197 53 -76 99 -173 112 -236 8 -38 17
-57 24 -53 6 4 123 12 311 21 36 2 101 6 145 9 326 23 598 39 682 40 35 1 63
3 63 6 0 3 42 6 93 8 145 4 138 0 124 77 -15 89 -20 115 -34 164 -8 29 -16 59
-17 65 -6 33 -46 144 -77 214 -11 24 -27 61 -35 82 -9 22 -20 40 -24 40 -4 0
-11 11 -14 25 -8 31 -92 158 -167 250 -85 105 -170 189 -284 280 -27 22 -51
43 -53 48 -2 4 -8 7 -13 7 -5 0 -31 16 -58 35 -45 33 -237 145 -247 145 -3 0
-31 12 -62 26 -69 32 -228 91 -297 110 -55 15 -168 44 -200 50 -56 11 -68 14
-83 18 -9 3 -39 8 -67 11 -27 4 -61 9 -75 11 -14 3 -45 6 -70 9 -25 3 -59 7
-76 9 -89 15 -677 30 -688 19z"/>
<path d="M6443 17748 l2 -623 23 2 c12 2 22 -2 22 -8 0 -5 5 -7 12 -3 14 9 92
9 107 0 6 -4 11 -4 11 1 0 7 145 9 175 3 6 -1 12 -1 15 0 17 7 157 4 168 -3 6
-5 12 -6 12 -1 0 11 131 11 148 0 6 -4 12 -4 12 1 0 9 84 8 99 -2 6 -3 11 -2
11 2 0 5 21 7 48 5 59 -3 47 -3 182 1 63 1 121 -1 128 -6 6 -5 12 -6 12 -1 0
10 83 9 99 -1 6 -3 11 -3 11 2 0 4 36 8 80 8 44 0 80 -3 80 -6 0 -7 60 -3 67
5 3 3 14 1 24 -5 11 -5 19 -6 19 -2 0 10 102 9 117 0 7 -4 14 -3 18 3 3 5 11
10 16 10 6 0 7 -4 4 -10 -3 -6 1 -7 10 -4 24 10 245 10 245 1 0 -5 5 -5 11 -1
15 9 189 11 189 2 0 -4 10 -4 23 0 28 10 78 9 95 -1 6 -5 12 -5 12 0 0 9 84 8
99 -2 6 -3 11 -3 11 2 0 4 36 8 80 8 44 0 80 -3 80 -7 0 -4 11 -3 25 2 17 6
25 6 25 -1 0 -6 5 -7 11 -3 18 11 122 11 137 1 6 -5 12 -6 12 -1 0 5 34 9 75
9 41 0 75 -4 75 -8 0 -5 5 -5 12 -1 14 9 228 10 251 1 10 -3 17 -3 17 1 0 4
25 7 55 7 30 0 55 -4 55 -8 0 -5 5 -5 12 -1 6 4 33 7 60 7 l48 -1 0 624 0 624
-1725 0 -1724 0 2 -622z"/>
</g>
</svg>
